<?xml version="1.0" encoding="UTF-8" standalone="no"?>
<svg width="200" height="120" viewBox="0 0 200 120" xmlns="http://www.w3.org/2000/svg">
  <!-- Destroyer Spaceship - Green color scheme -->
  
  <!-- Main hull - dark green -->
  <rect x="85" y="30" width="30" height="60" fill="#006622" rx="5" ry="5" />
  
  <!-- Heavy wings - bulky and strong -->
  <path d="M85,40 L60,70 L70,80 L85,70 Z" fill="#008833" />
  <path d="M115,40 L140,70 L130,80 L115,70 Z" fill="#008833" />
  
  <!-- Secondary wings -->
  <path d="M85,60 L65,85 L75,90 L85,75 Z" fill="#007722" />
  <path d="M115,60 L135,85 L125,90 L115,75 Z" fill="#007722" />
  
  <!-- Cockpit - green tinted -->
  <ellipse cx="100" cy="45" rx="10" ry="7" fill="#88ffaa" fill-opacity="0.7" />
  
  <!-- Weapon mounts -->
  <rect x="80" y="75" width="5" height="10" fill="#005511" />
  <rect x="115" y="75" width="5" height="10" fill="#005511" />
  
  <!-- Engine glow - multiple engines -->
  <circle cx="90" cy="95" r="5" fill="#00ff44" fill-opacity="0.7">
    <animate attributeName="r" values="4;6;4" dur="2s" repeatCount="indefinite" />
    <animate attributeName="fill-opacity" values="0.5;0.8;0.5" dur="2s" repeatCount="indefinite" />
  </circle>
  <circle cx="100" cy="95" r="5" fill="#00ff44" fill-opacity="0.7">
    <animate attributeName="r" values="4;6;4" dur="2s" repeatCount="indefinite" />
    <animate attributeName="fill-opacity" values="0.5;0.8;0.5" dur="2s" repeatCount="indefinite" />
  </circle>
  <circle cx="110" cy="95" r="5" fill="#00ff44" fill-opacity="0.7">
    <animate attributeName="r" values="4;6;4" dur="2s" repeatCount="indefinite" />
    <animate attributeName="fill-opacity" values="0.5;0.8;0.5" dur="2s" repeatCount="indefinite" />
  </circle>
</svg> 